<mxfile host="app.diagrams.net" modified="2023-09-23T16:49:08.996Z" agent="Mozilla/5.0 (X11; Ubuntu; Linux x86_64; rv:109.0) Gecko/20100101 Firefox/117.0" etag="nS3PM8WMUAO9KwaM-H0y" version="21.8.1" type="device">
  <diagram name="Page-1" id="fqgUaWCs7Lo9Ju1Ko43x">
    <mxGraphModel dx="989" dy="528" grid="1" gridSize="10" guides="1" tooltips="1" connect="1" arrows="1" fold="1" page="1" pageScale="1" pageWidth="850" pageHeight="1100" math="0" shadow="0">
      <root>
        <mxCell id="0" />
        <mxCell id="1" parent="0" />
        <mxCell id="JeNbulaq2RcSddtG1dQq-9" style="edgeStyle=orthogonalEdgeStyle;orthogonalLoop=1;jettySize=auto;html=1;exitX=1;exitY=0.5;exitDx=0;exitDy=0;entryX=0;entryY=0.5;entryDx=0;entryDy=0;strokeWidth=3;rounded=1;" edge="1" parent="1" source="JeNbulaq2RcSddtG1dQq-2" target="JeNbulaq2RcSddtG1dQq-3">
          <mxGeometry relative="1" as="geometry" />
        </mxCell>
        <mxCell id="JeNbulaq2RcSddtG1dQq-2" value="Data Retrieval" style="rounded=1;whiteSpace=wrap;html=1;fontStyle=1" vertex="1" parent="1">
          <mxGeometry x="320" y="240" width="120" height="60" as="geometry" />
        </mxCell>
        <mxCell id="JeNbulaq2RcSddtG1dQq-10" style="edgeStyle=orthogonalEdgeStyle;orthogonalLoop=1;jettySize=auto;html=1;exitX=1;exitY=0.5;exitDx=0;exitDy=0;entryX=0;entryY=0.5;entryDx=0;entryDy=0;strokeWidth=3;rounded=1;" edge="1" parent="1" source="JeNbulaq2RcSddtG1dQq-3" target="JeNbulaq2RcSddtG1dQq-4">
          <mxGeometry relative="1" as="geometry" />
        </mxCell>
        <mxCell id="JeNbulaq2RcSddtG1dQq-3" value="Preprocessing" style="rounded=1;whiteSpace=wrap;html=1;fontStyle=1" vertex="1" parent="1">
          <mxGeometry x="480" y="240" width="120" height="60" as="geometry" />
        </mxCell>
        <mxCell id="JeNbulaq2RcSddtG1dQq-11" style="edgeStyle=orthogonalEdgeStyle;orthogonalLoop=1;jettySize=auto;html=1;exitX=0.5;exitY=1;exitDx=0;exitDy=0;entryX=0.5;entryY=0;entryDx=0;entryDy=0;fontSize=11;strokeWidth=3;rounded=1;" edge="1" parent="1" source="JeNbulaq2RcSddtG1dQq-4" target="JeNbulaq2RcSddtG1dQq-5">
          <mxGeometry relative="1" as="geometry" />
        </mxCell>
        <mxCell id="JeNbulaq2RcSddtG1dQq-4" value="&lt;div&gt;Classification&lt;/div&gt;" style="rounded=1;whiteSpace=wrap;html=1;fontStyle=1" vertex="1" parent="1">
          <mxGeometry x="640" y="240" width="120" height="60" as="geometry" />
        </mxCell>
        <mxCell id="JeNbulaq2RcSddtG1dQq-12" style="edgeStyle=orthogonalEdgeStyle;orthogonalLoop=1;jettySize=auto;html=1;exitX=0;exitY=0.5;exitDx=0;exitDy=0;entryX=1;entryY=0.5;entryDx=0;entryDy=0;strokeWidth=3;rounded=1;" edge="1" parent="1" source="JeNbulaq2RcSddtG1dQq-5" target="JeNbulaq2RcSddtG1dQq-6">
          <mxGeometry relative="1" as="geometry" />
        </mxCell>
        <mxCell id="JeNbulaq2RcSddtG1dQq-5" value="&lt;div&gt;Topic Modeling&lt;br&gt;&lt;/div&gt;" style="rounded=1;whiteSpace=wrap;html=1;fontStyle=1" vertex="1" parent="1">
          <mxGeometry x="640" y="340" width="120" height="60" as="geometry" />
        </mxCell>
        <mxCell id="JeNbulaq2RcSddtG1dQq-13" style="edgeStyle=orthogonalEdgeStyle;orthogonalLoop=1;jettySize=auto;html=1;exitX=0;exitY=0.5;exitDx=0;exitDy=0;entryX=1;entryY=0.5;entryDx=0;entryDy=0;strokeWidth=3;rounded=1;" edge="1" parent="1" source="JeNbulaq2RcSddtG1dQq-6" target="JeNbulaq2RcSddtG1dQq-7">
          <mxGeometry relative="1" as="geometry" />
        </mxCell>
        <mxCell id="JeNbulaq2RcSddtG1dQq-6" value="&lt;div&gt;Postprocessing&lt;/div&gt;" style="rounded=1;whiteSpace=wrap;html=1;fontStyle=1" vertex="1" parent="1">
          <mxGeometry x="480" y="340" width="120" height="60" as="geometry" />
        </mxCell>
        <mxCell id="JeNbulaq2RcSddtG1dQq-14" style="edgeStyle=orthogonalEdgeStyle;orthogonalLoop=1;jettySize=auto;html=1;exitX=0;exitY=0.5;exitDx=0;exitDy=0;entryX=1;entryY=0.5;entryDx=0;entryDy=0;strokeWidth=3;rounded=1;" edge="1" parent="1" source="JeNbulaq2RcSddtG1dQq-7" target="JeNbulaq2RcSddtG1dQq-8">
          <mxGeometry relative="1" as="geometry" />
        </mxCell>
        <mxCell id="JeNbulaq2RcSddtG1dQq-7" value="&lt;div&gt;Time-Tagging&lt;/div&gt;" style="rounded=1;whiteSpace=wrap;html=1;fontStyle=1" vertex="1" parent="1">
          <mxGeometry x="320" y="340" width="120" height="60" as="geometry" />
        </mxCell>
        <mxCell id="JeNbulaq2RcSddtG1dQq-8" value="Visualization" style="rounded=1;whiteSpace=wrap;html=1;fontStyle=1" vertex="1" parent="1">
          <mxGeometry x="160" y="340" width="120" height="60" as="geometry" />
        </mxCell>
        <mxCell id="JeNbulaq2RcSddtG1dQq-18" style="edgeStyle=orthogonalEdgeStyle;rounded=0;orthogonalLoop=1;jettySize=auto;html=1;exitX=1;exitY=0.5;exitDx=0;exitDy=0;entryX=0;entryY=0.5;entryDx=0;entryDy=0;strokeWidth=3;" edge="1" parent="1" source="JeNbulaq2RcSddtG1dQq-17" target="JeNbulaq2RcSddtG1dQq-2">
          <mxGeometry relative="1" as="geometry" />
        </mxCell>
        <mxCell id="JeNbulaq2RcSddtG1dQq-17" value="&lt;b&gt;Query&lt;/b&gt;" style="ellipse;whiteSpace=wrap;html=1;" vertex="1" parent="1">
          <mxGeometry x="200" y="245" width="80" height="50" as="geometry" />
        </mxCell>
        <mxCell id="JeNbulaq2RcSddtG1dQq-19" value="" style="rounded=0;whiteSpace=wrap;html=1;fillColor=none;" vertex="1" parent="1">
          <mxGeometry x="140" y="170" width="160" height="250" as="geometry" />
        </mxCell>
        <mxCell id="JeNbulaq2RcSddtG1dQq-20" value="Frontend" style="text;html=1;strokeColor=none;fillColor=none;align=center;verticalAlign=middle;whiteSpace=wrap;rounded=0;fontStyle=5;fontSize=17;" vertex="1" parent="1">
          <mxGeometry x="140" y="180" width="160" height="30" as="geometry" />
        </mxCell>
        <mxCell id="JeNbulaq2RcSddtG1dQq-21" value="" style="rounded=0;whiteSpace=wrap;html=1;fillColor=none;" vertex="1" parent="1">
          <mxGeometry x="300" y="170" width="480" height="250" as="geometry" />
        </mxCell>
        <mxCell id="JeNbulaq2RcSddtG1dQq-22" value="Backend" style="text;html=1;strokeColor=none;fillColor=none;align=center;verticalAlign=middle;whiteSpace=wrap;rounded=0;fontStyle=5;fontSize=17;" vertex="1" parent="1">
          <mxGeometry x="300" y="180" width="480" height="30" as="geometry" />
        </mxCell>
      </root>
    </mxGraphModel>
  </diagram>
</mxfile>
